<svg width="100" height="100" viewBox="0 0 100 100" fill="none" xmlns="http://www.w3.org/2000/svg">
<path d="M15.5374 93.7211H84.4582C86.1058 93.7218 87.7239 93.2834 89.1458 92.451C90.5677 91.6186 91.7421 90.4223 92.548 88.9852C93.354 87.5482 93.7624 85.9223 93.7312 84.2749C93.7001 82.6276 93.2304 81.0183 92.3707 79.6128L57.9124 23.217C57.0844 21.861 55.9219 20.7405 54.5363 19.9631C53.1508 19.1856 51.5886 18.7773 49.9999 18.7773C48.4111 18.7773 46.849 19.1856 45.4634 19.9631C44.0778 20.7405 42.9153 21.861 42.0874 23.217L7.62487 79.6128C6.76514 81.0183 6.29552 82.6276 6.26435 84.2749C6.23319 85.9223 6.64161 87.5482 7.44756 88.9852C8.25352 90.4223 9.42789 91.6186 10.8498 92.451C12.2717 93.2834 13.8897 93.7218 15.5374 93.7211Z" fill="#42A5F5"/>
<path d="M50 68.0501C49.1712 68.0501 48.3763 67.7209 47.7903 67.1348C47.2042 66.5488 46.875 65.7539 46.875 64.9251V44.0918C46.875 43.263 47.2042 42.4681 47.7903 41.8821C48.3763 41.296 49.1712 40.9668 50 40.9668C50.8288 40.9668 51.6237 41.296 52.2097 41.8821C52.7958 42.4681 53.125 43.263 53.125 44.0918V64.9251C53.125 65.7539 52.7958 66.5488 52.2097 67.1348C51.6237 67.7209 50.8288 68.0501 50 68.0501Z" fill="#F4F4F4"/>
<path d="M50.0002 79.5086C52.3013 79.5086 54.1668 77.6431 54.1668 75.342C54.1668 73.0408 52.3013 71.1753 50.0002 71.1753C47.699 71.1753 45.8335 73.0408 45.8335 75.342C45.8335 77.6431 47.699 79.5086 50.0002 79.5086Z" fill="#F4F4F4"/>
<path d="M8.33743 32.2918C8.18817 32.2926 8.03908 32.2815 7.8916 32.2585C7.07186 32.1408 6.33234 31.7026 5.83546 31.0401C5.33859 30.3776 5.12499 29.545 5.2416 28.7251C6.08925 22.7968 8.83674 17.3033 13.0717 13.0691C17.3067 8.83491 22.8006 6.0884 28.7291 5.2418C29.5321 5.16097 30.3352 5.39392 30.9703 5.89187C31.6054 6.38982 32.0232 7.11416 32.1362 7.91323C32.2493 8.7123 32.0489 9.52413 31.5769 10.1787C31.1049 10.8334 30.398 11.28 29.6041 11.4251C25.0156 12.0836 20.764 14.2114 17.4866 17.4896C14.2091 20.7677 12.0824 25.0198 11.4249 29.6085C11.3196 30.3525 10.9493 31.0336 10.3821 31.5265C9.81491 32.0195 9.0889 32.2912 8.33743 32.2918Z" fill="#0D47A1"/>
<path d="M8.33743 32.2918C8.18817 32.2926 8.03908 32.2815 7.8916 32.2585C7.07186 32.1408 6.33234 31.7026 5.83546 31.0401C5.33859 30.3776 5.12499 29.545 5.2416 28.7251C6.08925 22.7968 8.83674 17.3033 13.0717 13.0691C17.3067 8.83491 22.8006 6.0884 28.7291 5.2418C29.5321 5.16097 30.3352 5.39392 30.9703 5.89187C31.6054 6.38982 32.0232 7.11416 32.1362 7.91323C32.2493 8.7123 32.0489 9.52413 31.5769 10.1787C31.1049 10.8334 30.398 11.28 29.6041 11.4251C25.0156 12.0836 20.764 14.2114 17.4866 17.4896C14.2091 20.7677 12.0824 25.0198 11.4249 29.6085C11.3196 30.3525 10.9493 31.0336 10.3821 31.5265C9.81491 32.0195 9.0889 32.2912 8.33743 32.2918Z" fill="#0D47A1"/>
<path d="M20.8374 32.2916C20.6882 32.2924 20.5391 32.2813 20.3916 32.2583C19.5719 32.1407 18.8323 31.7025 18.3355 31.04C17.8386 30.3775 17.625 29.5448 17.7416 28.7249C18.1386 25.9528 19.4236 23.384 21.4038 21.4038C23.384 19.4236 25.9528 18.1386 28.7249 17.7416C29.1317 17.6775 29.5472 17.6957 29.9469 17.795C30.3465 17.8944 30.7222 18.0729 31.0516 18.3199C31.381 18.567 31.6576 18.8777 31.8648 19.2335C32.0721 19.5894 32.2059 19.9832 32.2583 20.3916C32.3749 21.2115 32.1613 22.0441 31.6644 22.7066C31.1675 23.3691 30.428 23.8073 29.6083 23.9249C28.1748 24.1328 26.8469 24.7985 25.8227 25.8227C24.7985 26.8469 24.1328 28.1748 23.9249 29.6083C23.8188 30.352 23.4482 31.0325 22.8812 31.5253C22.3142 32.0181 21.5887 32.2901 20.8374 32.2916Z" fill="#0D47A1"/>
<path d="M20.8374 32.2918C20.6882 32.2926 20.5391 32.2815 20.3916 32.2585C19.5719 32.1408 18.8323 31.7026 18.3355 31.0401C17.8386 30.3776 17.625 29.545 17.7416 28.7251C18.1386 25.953 19.4236 23.3842 21.4038 21.404C23.384 19.4238 25.9528 18.1388 28.7249 17.7418C29.1317 17.6777 29.5472 17.6959 29.9469 17.7952C30.3465 17.8945 30.7222 18.073 31.0516 18.3201C31.381 18.5672 31.6576 18.8779 31.8648 19.2337C32.0721 19.5895 32.2059 19.9833 32.2583 20.3918C32.3749 21.2117 32.1613 22.0443 31.6644 22.7068C31.1675 23.3693 30.428 23.8075 29.6083 23.9251C28.1748 24.133 26.8469 24.7987 25.8227 25.8229C24.7985 26.8471 24.1328 28.175 23.9249 29.6085C23.8188 30.3521 23.4482 31.0327 22.8812 31.5255C22.3142 32.0183 21.5887 32.2903 20.8374 32.2918ZM91.6624 32.2918C90.911 32.2912 90.185 32.0195 89.6178 31.5265C89.0506 31.0336 88.6803 30.3525 88.5749 29.6085C87.9175 25.0198 85.7907 20.7677 82.5133 17.4896C79.2358 14.2114 74.9843 12.0836 70.3958 11.4251C69.6019 11.28 68.895 10.8334 68.423 10.1787C67.951 9.52413 67.7505 8.7123 67.8636 7.91323C67.9767 7.11416 68.3945 6.38982 69.0296 5.89187C69.6647 5.39392 70.4678 5.16097 71.2708 5.2418C77.1992 6.0884 82.6932 8.83491 86.9282 13.0691C91.1631 17.3033 93.9106 22.7968 94.7583 28.7251C94.8749 29.545 94.6613 30.3776 94.1644 31.0401C93.6675 31.7026 92.928 32.1408 92.1083 32.2585C91.9608 32.2815 91.8117 32.2926 91.6624 32.2918Z" fill="#0D47A1"/>
<path d="M91.6627 32.2918C90.9112 32.2912 90.1852 32.0195 89.618 31.5265C89.0508 31.0336 88.6805 30.3525 88.5752 29.6085C87.9177 25.0198 85.791 20.7677 82.5135 17.4896C79.2361 14.2114 74.9845 12.0836 70.396 11.4251C69.6021 11.28 68.8952 10.8334 68.4232 10.1787C67.9512 9.52413 67.7508 8.7123 67.8638 7.91323C67.9769 7.11416 68.3948 6.38982 69.0298 5.89187C69.6649 5.39392 70.468 5.16097 71.271 5.2418C77.1995 6.0884 82.6934 8.83491 86.9284 13.0691C91.1634 17.3033 93.9108 22.7968 94.7585 28.7251C94.8751 29.545 94.6615 30.3776 94.1646 31.0401C93.6678 31.7026 92.9282 32.1408 92.1085 32.2585C91.961 32.2815 91.8119 32.2926 91.6627 32.2918Z" fill="#0D47A1"/>
<path d="M79.1624 32.2917C78.4112 32.2903 77.6857 32.0182 77.1186 31.5254C76.5516 31.0327 76.1811 30.3521 76.0749 29.6084C75.8684 28.1744 75.2031 26.8458 74.1786 25.8214C73.1542 24.7969 71.8256 24.1316 70.3916 23.9251C69.5719 23.8075 68.8323 23.3693 68.3355 22.7068C67.8386 22.0443 67.625 21.2116 67.7416 20.3917C67.7934 19.9831 67.9268 19.5889 68.1339 19.2328C68.341 18.8767 68.6176 18.5658 68.9472 18.3186C69.2767 18.0714 69.6526 17.893 70.0525 17.7939C70.4524 17.6948 70.8681 17.6771 71.2749 17.7417C74.0479 18.1368 76.6177 19.4211 78.5983 21.4017C80.5789 23.3823 81.8632 25.9521 82.2583 28.7251C82.3749 29.545 82.1613 30.3776 81.6644 31.0401C81.1675 31.7026 80.428 32.1408 79.6083 32.2584C79.4608 32.2814 79.3117 32.2926 79.1624 32.2917Z" fill="#0D47A1"/>
<path d="M79.1625 32.2919C78.4113 32.2904 77.6857 32.0184 77.1187 31.5256C76.5517 31.0328 76.1812 30.3523 76.075 29.6086C75.8684 28.1746 75.2032 26.846 74.1787 25.8215C73.1542 24.7971 71.8256 24.1318 70.3916 23.9253C69.5719 23.8076 68.8324 23.3694 68.3355 22.7069C67.8386 22.0444 67.625 21.2118 67.7416 20.3919C67.7935 19.9832 67.9269 19.5891 68.134 19.233C68.3411 18.8769 68.6176 18.566 68.9472 18.3188C69.2768 18.0716 69.6527 17.8932 70.0525 17.7941C70.4524 17.695 70.8681 17.6772 71.275 17.7419C74.0479 18.137 76.6178 19.4213 78.5984 21.4019C80.5789 23.3825 81.8633 25.9523 82.2583 28.7253C82.3749 29.5451 82.1613 30.3778 81.6645 31.0403C81.1676 31.7028 80.4281 32.141 79.6083 32.2586C79.4608 32.2816 79.3118 32.2927 79.1625 32.2919ZM82.8208 95.0586H17.1792C15.0554 95.0576 12.9702 94.4912 11.1379 93.4173C9.30568 92.3435 7.79244 90.8011 6.75379 88.9487C5.71514 87.0962 5.18855 85.0006 5.22815 82.8772C5.26776 80.7538 5.87214 78.6793 6.97915 76.8669L39.8 23.1669C40.8671 21.4187 42.3656 19.974 44.1518 18.9717C45.938 17.9693 47.9518 17.4429 50 17.4429C52.0482 17.4429 54.062 17.9693 55.8482 18.9717C57.6343 19.974 59.1329 21.4187 60.2 23.1669L93.0208 76.8753C94.1271 78.6872 94.7309 80.7612 94.77 82.8838C94.8092 85.0065 94.2824 87.1012 93.2437 88.9528C92.2051 90.8044 90.6921 92.346 88.8602 93.4191C87.0284 94.4922 84.9438 95.0581 82.8208 95.0586ZM50 23.6919C49.0216 23.6876 48.0587 23.9367 47.2051 24.415C46.3515 24.8932 45.6363 25.5844 45.1292 26.4211L12.3083 80.1252C11.7808 80.9907 11.4933 81.9811 11.4752 82.9945C11.4572 84.0079 11.7093 85.0079 12.2057 85.8916C12.7021 86.7753 13.4248 87.5109 14.2996 88.0228C15.1744 88.5348 16.1697 88.8045 17.1833 88.8044H82.8208C83.834 88.8038 84.8288 88.5335 85.7031 88.0213C86.5773 87.509 87.2994 86.7734 87.7953 85.8898C88.2912 85.0062 88.5429 84.0065 88.5247 82.9935C88.5065 81.9804 88.219 80.9904 87.6917 80.1252L54.8708 26.4169C54.3631 25.581 53.6477 24.8907 52.7941 24.4132C51.9406 23.9356 50.978 23.6872 50 23.6919Z" fill="#0D47A1"/>
</svg>
