<svg width="80" height="80" viewBox="0 0 80 80" fill="none" xmlns="http://www.w3.org/2000/svg">
<rect width="80" height="80" rx="15" fill="url(#paint0_linear_13_293)"/>
<path d="M45.7951 41.4833L48.3201 55.6933C48.3484 55.8607 48.3249 56.0326 48.2528 56.1863C48.1807 56.3399 48.0634 56.4678 47.9166 56.553C47.7698 56.6382 47.6006 56.6765 47.4314 56.6629C47.2623 56.6492 47.1013 56.5843 46.9701 56.4767L41.0034 51.9983C40.7154 51.7831 40.3655 51.6669 40.0059 51.6669C39.6464 51.6669 39.2964 51.7831 39.0084 51.9983L33.0317 56.475C32.9006 56.5824 32.7398 56.6472 32.5709 56.6609C32.402 56.6746 32.2329 56.6364 32.0862 56.5515C31.9395 56.4665 31.8222 56.3389 31.7499 56.1856C31.6777 56.0322 31.6539 55.8605 31.6817 55.6933L34.2051 41.4833" stroke="white" stroke-width="3" stroke-linecap="round" stroke-linejoin="round"/>
<path d="M40 43.3333C45.5228 43.3333 50 38.8562 50 33.3333C50 27.8105 45.5228 23.3333 40 23.3333C34.4772 23.3333 30 27.8105 30 33.3333C30 38.8562 34.4772 43.3333 40 43.3333Z" stroke="white" stroke-width="3" stroke-linecap="round" stroke-linejoin="round"/>
<defs>
<linearGradient id="paint0_linear_13_293" x1="80" y1="37.3333" x2="1.37456" y2="37.3333" gradientUnits="userSpaceOnUse">
<stop stop-color="#3495E9"/>
<stop offset="1" stop-color="#0F50AA"/>
</linearGradient>
</defs>
</svg>
