<svg width="148" height="148" viewBox="0 0 148 148" fill="none" xmlns="http://www.w3.org/2000/svg">
<rect width="148" height="148" rx="74" fill="#1A66FE"/>
<path d="M82.9169 76.4104L87.0201 99.5017C87.066 99.7736 87.0279 100.053 86.9107 100.303C86.7935 100.552 86.603 100.76 86.3645 100.899C86.1259 101.037 85.8509 101.099 85.576 101.077C85.3011 101.055 85.0396 100.949 84.8263 100.775L75.1305 93.4973C74.6624 93.1476 74.0938 92.9587 73.5095 92.9587C72.9253 92.9587 72.3567 93.1476 71.8886 93.4973L62.1765 100.772C61.9634 100.946 61.7022 101.052 61.4277 101.074C61.1531 101.096 60.8783 101.034 60.64 100.896C60.4016 100.758 60.211 100.551 60.0936 100.302C59.9762 100.052 59.9375 99.7734 59.9828 99.5017L64.0832 76.4104" stroke="white" stroke-width="5" stroke-linecap="round" stroke-linejoin="round"/>
<path d="M73.5 79.4167C82.4746 79.4167 89.75 72.1413 89.75 63.1667C89.75 54.192 82.4746 46.9167 73.5 46.9167C64.5254 46.9167 57.25 54.192 57.25 63.1667C57.25 72.1413 64.5254 79.4167 73.5 79.4167Z" stroke="white" stroke-width="5" stroke-linecap="round" stroke-linejoin="round"/>
</svg>
