<svg width="148" height="148" viewBox="0 0 148 148" fill="none" xmlns="http://www.w3.org/2000/svg">
<rect width="148" height="148" rx="74" fill="#00A4C8"/>
<path d="M95.1667 63.1667H51.8333C50.3376 63.1667 49.125 64.3792 49.125 65.875V71.2917C49.125 72.7874 50.3376 74 51.8333 74H95.1667C96.6624 74 97.875 72.7874 97.875 71.2917V65.875C97.875 64.3792 96.6624 63.1667 95.1667 63.1667Z" stroke="white" stroke-width="5" stroke-linecap="round" stroke-linejoin="round"/>
<path d="M73.5 63.1667V98.375" stroke="white" stroke-width="5" stroke-linecap="round" stroke-linejoin="round"/>
<path d="M92.4583 74V92.9583C92.4583 94.3949 91.8876 95.7727 90.8718 96.7885C89.856 97.8043 88.4782 98.375 87.0416 98.375H59.9583C58.5217 98.375 57.144 97.8043 56.1281 96.7885C55.1123 95.7727 54.5416 94.3949 54.5416 92.9583V74" stroke="white" stroke-width="5" stroke-linecap="round" stroke-linejoin="round"/>
<path d="M61.3125 63.1667C59.5167 63.1667 57.7945 62.4533 56.5248 61.1835C55.255 59.9138 54.5416 58.1916 54.5416 56.3958C54.5416 54.6001 55.255 52.8779 56.5248 51.6081C57.7945 50.3383 59.5167 49.625 61.3125 49.625C63.9252 49.5795 66.4854 50.8472 68.6595 53.2627C70.8335 55.6783 72.5203 59.1296 73.5 63.1667C74.4796 59.1296 76.1665 55.6783 78.3405 53.2627C80.5145 50.8472 83.0748 49.5795 85.6875 49.625C87.4832 49.625 89.2054 50.3383 90.4752 51.6081C91.7449 52.8779 92.4583 54.6001 92.4583 56.3958C92.4583 58.1916 91.7449 59.9138 90.4752 61.1835C89.2054 62.4533 87.4832 63.1667 85.6875 63.1667" stroke="white" stroke-width="5" stroke-linecap="round" stroke-linejoin="round"/>
</svg>
