<svg width="131" height="131" viewBox="0 0 131 131" fill="none" xmlns="http://www.w3.org/2000/svg">
<rect width="131" height="131" rx="24" fill="#68BBFF"/>
<path d="M74.9169 67.4104L79.02 90.5017C79.066 90.7736 79.0278 91.053 78.9106 91.3027C78.7935 91.5523 78.6029 91.7602 78.3644 91.8986C78.1259 92.037 77.8508 92.0993 77.5759 92.0771C77.3011 92.055 77.0395 91.9494 76.8262 91.7746L67.1304 84.4973C66.6623 84.1476 66.0937 83.9587 65.5095 83.9587C64.9252 83.9587 64.3566 84.1476 63.8885 84.4973L54.1765 91.7719C53.9634 91.9464 53.7021 92.0518 53.4276 92.074C53.1531 92.0962 52.8783 92.0341 52.6399 91.8961C52.4016 91.7581 52.211 91.5507 52.0935 91.3015C51.9761 91.0524 51.9374 90.7734 51.9827 90.5017L56.0831 67.4104" stroke="white" stroke-width="5" stroke-linecap="round" stroke-linejoin="round"/>
<path d="M65.5 70.4167C74.4746 70.4167 81.75 63.1413 81.75 54.1667C81.75 45.192 74.4746 37.9167 65.5 37.9167C56.5254 37.9167 49.25 45.192 49.25 54.1667C49.25 63.1413 56.5254 70.4167 65.5 70.4167Z" stroke="white" stroke-width="5" stroke-linecap="round" stroke-linejoin="round"/>
</svg>
